<svg width="30" height="37" viewBox="0 0 30 37" fill="none" xmlns="http://www.w3.org/2000/svg">
<path d="M13.272 0.135986C15.48 0.135986 17.568 0.543985 19.536 1.35998C21.456 2.17598 23.136 3.35198 24.576 4.88798C26.016 6.47198 27.168 8.36798 28.032 10.576C28.848 12.832 29.256 15.376 29.256 18.208C29.256 21.04 28.848 23.584 28.032 25.84C27.168 28.096 26.04 29.992 24.648 31.528C23.208 33.112 21.6 34.312 19.824 35.128C18 35.992 16.128 36.424 14.208 36.424C10.08 36.424 6.84003 35.032 4.48802 32.248C2.13602 29.464 0.960022 25.528 0.960022 20.44C0.960022 20.008 0.960022 19.576 0.960022 19.144C0.960022 18.712 1.00802 18.28 1.10402 17.848H26.016C25.968 15.688 25.632 13.672 25.008 11.8C24.384 9.97598 23.52 8.39198 22.416 7.04798C21.264 5.75198 19.896 4.71998 18.312 3.95198C16.728 3.23198 14.952 2.87198 12.984 2.87198C11.112 2.87198 9.43202 3.13598 7.94402 3.66398C6.40802 4.23998 4.99202 5.00798 3.69602 5.96798L2.40002 3.51998C3.79202 2.70398 5.32802 1.93598 7.00802 1.21598C8.64002 0.495986 10.728 0.135986 13.272 0.135986ZM26.016 20.44H3.98402C3.98402 24.904 4.89602 28.216 6.72003 30.376C8.54403 32.584 11.016 33.688 14.136 33.688C15.624 33.688 17.04 33.376 18.384 32.752C19.728 32.176 20.952 31.312 22.056 30.16C23.112 29.008 24 27.616 24.72 25.984C25.392 24.352 25.824 22.504 26.016 20.44Z" fill="black"/>
</svg>
